<svg xmlns="http://www.w3.org/2000/svg" width="54.02943mm" height="53.486816mm" viewBox="0 0 54.02943 53.486816">
    <path d="m -40.600629,-161.71337 c 1.278655,-0.12953 5.424585,-0.29392 6.166316,-0.22916 0.74173,0.0648 1.151342,0.85683 1.101524,1.67381 -0.04982,0.81697 -0.221409,4.30407 -0.304441,4.80721 -0.08303,0.50314 0.07658,0.98085 -1.107061,0.89669 -1.18364,-0.0842 -5.298593,-0.0472 -5.298595,-0.0472 -0.276209,0.11143 -1.176211,-0.60269 -1.017173,-1.96034 0.151285,-1.29147 0.01662,-4.83212 0.45943,-5.14097 z" color="#000" overflow="visible" fill="#fff" paint-order="fill markers stroke" transform="translate(-22.904209,-19.847617) matrix(6.4020867,0,0,6.4020867,288.27566,1059.7771)"/>
    <path d="m -39.987535,-154.26833 c -0.660603,-0.19634 -1.119706,-0.31052 -1.247588,-1.04498 -0.14561,-0.83629 -0.352366,-4.30781 -0.08939,-5.81801 0.09464,-0.54347 0.411721,-1.06453 1.277246,-1.12763 0.713408,-0.052 1.989985,-0.15843 3.46481,-0.17707 3.066521,0.0745 3.626311,0.35505 3.551942,2.19738 -0.04701,1.16452 0.167132,3.21055 -0.207757,4.85232 -0.240626,1.05354 -0.882334,1.35994 -2.673279,1.27648 -1.281708,-0.0302 -3.028274,0.15805 -4.075988,-0.15849 z m 4.059595,-0.38066 c 1.596076,-0.068 1.876243,-0.37752 2.054094,-1.30128 0.166465,-0.86468 0.219603,-3.14768 0.255933,-3.63023 0.157038,-2.08812 -0.955994,-2.09933 -1.625357,-2.201 -1.632906,-0.21693 -2.44208,-0.003 -4.096926,0.12583 -0.588944,0.0538 -1.007047,0.13162 -1.239871,0.65315 -0.21535,0.48234 -0.255182,4.33154 -0.006,5.08176 0.208967,0.62906 0.15929,0.85173 1.437244,1.11329 1.224856,0.25917 2.144521,0.20436 3.22089,0.15848 z m -2.107482,-1.63873 c -0.66077,-0.36311 -1.156328,-1.51615 -1.025775,-2.38667 0.05343,-0.35646 0.163128,-0.56953 0.457559,-0.88899 0.59199,-0.64222 1.267818,-0.7258 2.193739,-0.27136 0.454306,0.1516 0.612386,0.52159 0.848257,0.81976 0.56734,0.71356 0.576098,1.42528 0.02507,2.0442 -0.64442,0.72385 -1.83324,1.04883 -2.498848,0.68306 z m 1.464689,-0.73143 c 0.52342,-0.27613 0.893888,-0.85291 0.817183,-1.2722 -0.374681,-1.17032 -1.582603,-1.62296 -2.30427,-0.92874 -0.387028,0.387 -0.387696,0.38889 -0.349739,1.04325 0.037,0.63837 0.09614,0.77292 0.548903,1.24858 0.194829,0.20474 0.809843,0.1613 1.287923,-0.0909 z m 1.088131,-3.08023 c -0.292262,-0.1105 -0.407548,-0.70738 -0.184275,-0.9541 0.177852,-0.19656 0.500605,-0.13173 0.725463,0.0358 0.379853,0.283 0.308404,0.5001 0.0357,0.74925 -0.26903,0.23106 -0.350114,0.25484 -0.576892,0.16905 z" fill="#030303" transform="translate(-22.904209,-19.847617) matrix(6.4020867,0,0,6.4020867,288.27566,1059.7771)"/>
</svg>
