<svg xmlns="http://www.w3.org/2000/svg" width="37.982784mm" height="64.410667mm" viewBox="0 0 37.982784 64.410667">
    <path d="m 11684.45,-918.2647 c 0,0 0.847,-38.6335 1.238,-56.4553 0.39,-17.8218 14.07,-32.9469 40.452,-36.992 26.382,-4.0451 38.694,-0.8208 38.694,-0.8208 l 1.889,40.0991 -34.329,1.7588 -1.759,54.5793 34.524,-2.1105 2.215,40.9784 -32.896,4.1037 5.146,84.126 -47.618,0.9967 0.521,-79.143 -48.92,-2.1691 0.06,-47.1926 z" color="#000" overflow="visible" fill="#fff" paint-order="fill markers stroke" transform="translate(-82.843175,51.507314) matrix(0.26458333,0,0,0.26458333,-2995.2532,219.03903)"/>
    <path d="m 11683.435,-782.77371 c -1.419,-2.6504 -1.37,-11.7872 0.135,-25.2704 1.297,-11.6158 2.044,-27.6831 1.662,-35.7044 -0.181,-11.121 2.037,-16.1452 -8.531,-18.3282 -12.341,-1.5453 -31.62,4.897 -40.138,-3.7425 -3.63,-4.3736 -3.799,-48.811 -0.201,-52.4548 1.772,-1.7946 10.885,-3.5321 22.104,-4.2152 l 19.088,-1.1635 -0.472,-6.9799 c -2.444,-36.0668 -1.718,-51.42383 2.799,-59.26603 16.723,-24.18076 44.792,-32.59686 66.98,-32.63846 29.832,0 29.437,-0.409 29.238,30.20756 -0.194,29.53763 -1.927,32.92563 -14.52,28.37143 -9.339,-3.3763 -16.628,-3.4841 -22.52,-0.3299 -3.728,1.9947 -4.501,4.9581 -4.501,17.2595 0,23.242 0.13,28.0325 25.858,21.5941 3.543,-0.8869 11.175,-0.5415 12.413,5.4671 3.941,15.6803 8.977,53.1534 -3.1,51.0809 l -24.193,2.8776 1.632,41.3364 c 1.171,29.67 0.894,41.7909 -0.983,42.9519 -1.438,0.8882 -15.646,1.9491 -31.573,2.3569 -25.862,0.6623 -29.195,0.2987 -31.18,-3.4101 z m 48.33,-46.5593 c -1.009,-20.1851 -2.89,-35.4135 -4.861,-39.3664 -2.026,-4.0594 -2.523,-8.3187 -1.345,-11.5041 1.608,-4.349 15.6,-2.7582 26.529,-2.7582 11.507,0.9921 5.592,-13.5351 4.936,-25.1899 -1.401,-2.266 -15.421,-4.2567 -24.276,0.1611 -9.059,4.5216 -11.871,-1.1753 -13.488,-27.3313 -1.031,-16.6763 -0.552,-25.83 1.698,-32.4399 3.525,-10.36003 7.598,-12.29233 26.691,-12.66373 11.427,-0.2208 11.985,-0.535 13.379,-7.5019 0.799,-3.9996 1.454,-10.2809 1.454,-13.96106 0,-6.6214 -0.14,-6.6889 -13.913,-6.6889 -62.343,4.6982 -57.019,43.93089 -55.949,76.40589 0.775,22.8537 0.532,23.0459 -29.604,23.4485 l -14.542,0.1921 v 30.2479 l 13.379,0.3649 c 7.358,0.1999 16.588,0.5168 20.512,0.7012 22.01,3.636 22.177,16.7127 20.917,33.5488 -0.924,15.57 -2.322,31.0906 -3.928,46.5995 10.945,0.265 21.961,1.3571 32.888,1.0181 0.643,-0.2 0.43,-15.1778 -0.476,-33.2839 z" fill="#030303" transform="translate(-82.843175,51.507314) matrix(0.26458333,0,0,0.26458333,-2995.2532,219.03903)"/>
</svg>
