<svg xmlns="http://www.w3.org/2000/svg" width="59.635742mm" height="72.003456mm" viewBox="0 0 59.635742 72.003456">
    <path d="m 10545.132,-268.0947 160.528,3.97824 c 26.649,0.66041 32.649,18.92276 32.543,30.41305 l 3.807,75.10694 c -0.108,11.49037 -16.191,26.60052 -27.366,26.78183 l -154.248,2.5026 c -22.712,0.36849 -30.147,-16.95642 -30.768,-28.43038 l -4.858,-89.8146 c 0.108,-11.49029 9.19,-20.81455 20.362,-20.53768 z" color="#000" overflow="visible" fill="#fff" paint-order="fill markers stroke" transform="translate(24.493214,-161.67722) matrix(0.26458333,0,0,0.26458333,-2808.1624,266.80969)"/>
    <path d="m 10628.638,-396.0497 c -13.855,-5.54013 -14.023,7.45875 -22.353,22.90991 -17.435,32.3427 -17.05,35.9729 -24.124,22.8437 -10.02,-18.2721 -22.168,-49.41215 -34.993,-46.29565 -8.065,0.9362 -7.965,4.7245 0.382,14.5312 13.03,20.25347 21.028,30.93805 28.611,51.01645 1.988,12.818 3.031,18.85692 5.199,41.35842 0.599,13.9323 14.265,10.3886 14.971,1.916 1.374,-15.9279 -1.753,-19.02912 3.045,-36.90722 5.293,-19.68304 22.178,-40.28945 28.43,-55.90926 4.339,-10.84222 7.36,-14.64853 0.832,-15.46355 z m 40.478,54.18121 c -5.308,0 -5.828,0.763 -4.488,6.6152 3.873,21.1067 1.63,32.3406 10.449,51.7188 16.946,18.0641 37.384,-10.76 34.303,-34.3516 0,-11.7297 -0.835,-14.6375 -4.813,-16.7656 -7.317,-3.9173 -15.262,1.0423 -12.758,7.9648 4.368,12.0713 -0.286,33.1519 -6.472,29.3281 -1.017,-0.6281 -2.623,-9.5457 -3.573,-19.8183 -1.927,-20.8176 -3.91,-24.6914 -12.648,-24.6914 z m -27.919,3.92584 c -1.557,0.013 -3.325,0.4843 -5.735,1.3242 -11.399,3.9745 -21.497,19.5092 -21.447,33.1582 0.03,13.4425 14.503,32.7866 31.975,21.7012 14.322,-9.0879 15.261,-41.6615 3.218,-52.0196 -3.41,-2.9344 -5.417,-4.1853 -8.011,-4.164 z m -2.694,15.7148 c 0.548,-0.028 1.103,0.01 1.662,0.1133 5.494,1.0403 8.148,7.8962 6.225,18.1641 -2.379,12.7437 -9.837,19.9993 -18.303,6.7695 -4.44,-9.7415 2.197,-24.6202 10.416,-25.0469 z m -60.537,50.18946 c -12.801,-0.041 -25.323,0.016 -37.53,0.1738 -24.134,0.3119 -19.135,14.0372 -18.896,37.873 0.244,22.9043 1.611,60.7311 2.041,79.2383 0.634,28.1608 35.55,28.466 45.027,28.5137 47.204,0.1364 85.323,3.2269 137.998,-2.0196 33.173,-0.3038 35.958,-14.4402 38.977,-35.9199 2.437,-17.3129 -1.601,-45.6407 -2.907,-62.9551 -1.932,-25.528 -9.63,-42.941 -42.917,-41.9375 -42.479,-1.8357 -83.393,-2.8442 -121.793,-2.9667 z m 105.847,15.5429 c 20.938,0.8228 44.601,-4.1333 47.983,38.1172 1.957,24.2126 2.021,45.241 1.142,60.2813 -0.944,16.1725 -29.542,22.436 -46.578,20.7304 -43.381,2.043 -79.403,0.9453 -118.217,0.063 -18.26,-0.4151 -32.769,-5.586 -32.912,-27.2056 -0.148,-25.8003 -1.284,-46.1841 -2.529,-58.1132 -1.231,-11.8309 -0.979,-12.9001 2.398,-10.1114 8.108,2.8779 18.298,0.073 27.936,-0.086 4.113,26.9561 5.743,38.633 9.488,74.5059 0.397,7.7896 0.978,5.8576 0.884,10.7697 0.236,7.2784 13.791,5.6616 13.271,1.1936 l -1.061,-9.1059 c -1.184,-10.164 -2.722,-31.5309 -4.121,-47.4141 -3.211,-36.4566 -1.987,-30.3828 -1.987,-30.3828 19.452,-0.1216 37.289,1.8416 36.581,-3.9961 l -0.997,-8.2246 -26.46,0.2734 c -14.551,0.1495 -32.685,0.7714 -40.293,1.3829 -13.083,1.0512 -13.832,0.8179 -13.832,-4.3204 0,-3.2079 1.855,-6.0196 4.531,-6.8691 6.469,-2.0533 31.304,-3.1183 60.201,-2.9375 28.938,0.0276 60.357,0.52684 84.572,1.4493 z m -44.533,13.6211 c -10.024,18.3847 -3.15,36.0426 -0.807,63.7813 l 3.358,26.2734 c 0.886,8.0055 21.999,9.2659 38.633,-7.6934 0.891,-1.8248 1.339,-4.622 4.634,-1.166 8.839,7.4515 13.437,8.5368 22.532,7.084 12.424,-1.986 15.758,-4.8418 12.187,-10.457 -1.756,-2.7563 -5.761,-4.1446 -11.976,-4.1446 -11.605,0 -13.394,-6.7592 -2.118,-8.0312 3.968,-0.4474 8.566,-1.9329 10.221,-3.3008 11.419,-9.4437 -12.984,-38.1206 -27.297,-31.543 -10.021,4.6041 -7.311,14.2657 -9.142,22.1231 -5.452,-8.9624 -8.939,-15.2501 -20.83,-16.0156 -4.197,0.9439 -5.789,1.8862 -6.075,-16.8868 -0.186,-12.2686 -1.262,-16.7939 -4.763,-19.9609 -3.499,-3.68259 -5.798,-2.81155 -8.557,-0.0625 z m -19.73,41.7656 c -2.726,-0.09 -4.809,2.5221 -3.833,9.7481 0.596,8.123 0.453,10.3915 -0.287,17.5644 1.355,9.3784 -9.107,8.3195 -11.65,-0.2714 -1.459,-5.2585 -2.666,-13.042 -2.666,-17.295 -0.152,-11.1836 -14.415,-12.7769 -12.012,0.5645 1.112,8.6486 -0.295,27.5325 7.186,34.832 9.221,8.9974 13.773,9.6998 26.187,-0.4785 7.393,-7.9141 6.912,-21.7096 5.649,-34.9785 -0.502,-4.9877 -5.07,-9.5698 -8.574,-9.6856 z m 80.031,4.25 c 1.244,0 2.933,1.0832 3.748,2.4063 0.821,1.3231 -0.2,2.4043 -2.26,2.4043 -2.065,0 -3.748,-1.0812 -3.748,-2.4043 0,-1.3231 1.015,-2.4063 2.26,-2.4063 z m -40.836,4.8106 c 2.599,0 5.965,2.3132 7.476,5.1406 3.258,6.0883 1.304,21.3036 -3.093,24.0957 -6.887,4.3684 -9.112,0.1223 -9.112,-17.4062 0,-10.1563 0.674,-11.8301 4.729,-11.8301 z" fill="#030303" transform="translate(24.493214,-161.67722) matrix(0.26458333,0,0,0.26458333,-2808.1624,266.80969)"/>
</svg>
